<svg xmlns="http://www.w3.org/2000/svg" version="1.1" xmlns:xlink="http://www.w3.org/1999/xlink" width="1000" height="1000"><g clip-path="url(#SvgjsClipPath1228)"><rect width="1000" height="1000" fill="#ffffff"></rect><g transform="matrix(0.5936505041755001,0,0,0.5936505041755001,200,203.86030441922935)"><svg xmlns="http://www.w3.org/2000/svg" version="1.1" xmlns:xlink="http://www.w3.org/1999/xlink" width="1010.69568" height="997.69037"><svg version="1.1" id="Layer_1" xmlns="http://www.w3.org/2000/svg" xmlns:xlink="http://www.w3.org/1999/xlink" x="0px" y="0px" viewBox="0 0 1010.69568 997.69037" style="enable-background:new 0 0 1010.69568 997.69037;" xml:space="preserve">
<g>
	<polygon points="859.78534,997.69037 1010.69568,997.69037 1010.69568,848.20966 	"></polygon>
	<polygon points="0,258.46646 0,409.39456 413.31119,0 260.93839,0 	"></polygon>
	<polygon points="952.89105,0 794.18848,0 0,786.66479 0,943.86151 	"></polygon>
	<polygon points="680.66705,0 526.83295,0 0,521.8421 0,674.21704 	"></polygon>
	<polygon points="1010.69568,55.18862 59.17985,997.69037 220.57372,997.69037 1010.69568,215.05559 	"></polygon>
	<polygon points="147.41621,0 0,0 0,146.01939 	"></polygon>
	<polygon points="1010.69568,735.76306 1010.69568,588.96802 598.06439,997.69037 746.26257,997.69037 	"></polygon>
	<polygon points="1010.69568,476.52219 1010.69568,327.50098 334.09659,997.69037 484.54163,997.69037 	"></polygon>
</g>
</svg></svg></g></g><defs><clipPath id="SvgjsClipPath1228"><rect width="1000" height="1000" x="0" y="0" rx="250" ry="250"></rect></clipPath></defs></svg>